<svg width="14" height="15" viewBox="0 0 14 15" fill="none" xmlns="http://www.w3.org/2000/svg">
<path fill-rule="evenodd" clip-rule="evenodd" d="M12.6009 8.55203C12.8394 8.6787 13.0233 8.8787 13.1528 9.0787C13.4049 9.49203 13.3844 9.9987 13.1391 10.4454L12.6622 11.2454C12.4101 11.672 11.94 11.9387 11.4563 11.9387C11.2179 11.9387 10.9522 11.872 10.7341 11.7387C10.557 11.6254 10.3526 11.5854 10.1346 11.5854C9.4601 11.5854 8.89461 12.1387 8.87417 12.7987C8.87417 13.5654 8.24737 14.1654 7.46387 14.1654H6.5373C5.74698 14.1654 5.12018 13.5654 5.12018 12.7987C5.10656 12.1387 4.54108 11.5854 3.86658 11.5854C3.64175 11.5854 3.43736 11.6254 3.26704 11.7387C3.04902 11.872 2.7765 11.9387 2.54485 11.9387C2.05431 11.9387 1.58421 11.672 1.33213 11.2454L0.862029 10.4454C0.609946 10.012 0.59632 9.49203 0.848403 9.0787C0.957411 8.8787 1.1618 8.6787 1.39345 8.55203C1.58421 8.4587 1.70685 8.30536 1.82267 8.12536C2.16332 7.55203 1.95893 6.7987 1.37982 6.4587C0.705329 6.0787 0.487311 5.23203 0.875655 4.57203L1.33213 3.78536C1.72729 3.12536 2.5721 2.89203 3.25341 3.2787C3.84614 3.5987 4.61602 3.38536 4.96348 2.8187C5.07249 2.63203 5.13381 2.43203 5.12018 2.23203C5.10656 1.97203 5.1815 1.72536 5.31095 1.52536C5.56303 1.11203 6.01951 0.845365 6.51686 0.832031H7.4775C7.98167 0.832031 8.43814 1.11203 8.69022 1.52536C8.81286 1.72536 8.89461 1.97203 8.87417 2.23203C8.86055 2.43203 8.92187 2.63203 9.03087 2.8187C9.37834 3.38536 10.1482 3.5987 10.7478 3.2787C11.4223 2.89203 12.2739 3.12536 12.6622 3.78536L13.1187 4.57203C13.5139 5.23203 13.2958 6.0787 12.6145 6.4587C12.0354 6.7987 11.831 7.55203 12.1785 8.12536C12.2875 8.30536 12.4101 8.4587 12.6009 8.55203ZM7.08624 10.6185C5.41898 10.6185 4.07031 9.2911 4.07031 7.62384C4.07031 5.95659 5.41898 4.61854 7.08624 4.61854C8.7535 4.61854 10.0703 5.95659 10.0703 7.62384C10.0703 9.2911 8.7535 10.6185 7.08624 10.6185ZM9 7.49854C9 8.6031 8.10457 9.49854 7 9.49854C5.89543 9.49854 5 8.6031 5 7.49854C5 6.39397 5.89543 5.49854 7 5.49854C8.10457 5.49854 9 6.39397 9 7.49854Z" fill="#8A92A6"/>
</svg>
